/* XPM */
static char * folder_xpm[] = {
"16 16 7 1",
" 	c None",
".	c #999179",
"+	c #FFFFFF",
"@	c #BEB8A4",
"#	c #837B64",
"$	c #808080",
"%	c #BDBDBD",
"                ",
"                ",
"  ......        ",
" ..+++++.       ",
" .+.@.@.+###### ",
" .+@.@.@.+++++# ",
" .+.@.@.@.@.@.#$",
"############.@#$",
"#+++++++++@#@.#$",
" #.@.@.@.@.@#%#$",
" #@.@.@.@.@.###$",
"  #%.%.%.@.@.##$",
"  #############$",
"   $$$$$$$$$$$$$",
"                ",
"                "};
