/* XPM */
static char * member_xpm[] = {
"16 16 3 1",
" 	c None",
".	c #000000",
"+	c #E22626",
"                ",
"  ........      ",
"  .++++++.      ",
"  .++++++.      ",
"  .++++++.      ",
"  .++++++.      ",
"  .++++++.      ",
"  .++++++.      ",
"  .++++++.      ",
"  .++++++.      ",
"  .++++++.      ",
"  .++++++.      ",
"  .++++++.      ",
"  .++++++.      ",
"  ........      ",
"                "};
