/* XPM */
static char * protected_xpm[] = {
"16 16 2 1",
" 	c None",
".	c #FFFF00",
"                ",
"                ",
"   ......       ",
"   ......       ",
"   ......       ",
"   ......       ",
"   ......       ",
"   ......       ",
"   ......       ",
"   ......       ",
"   ......       ",
"   ......       ",
"   ......       ",
"   ......       ",
"                ",
"                "};
