/* XPM */
static char * struct_xpm[] = {
"16 16 9 1",
" 	c None",
".	c #000000",
"+	c #FFFFFF",
"@	c #D9A6D9",
"#	c #CB32CD",
"$	c #BFF7FE",
"%	c #006CBF",
"&	c #00217F",
"*	c #AD00AF",
"                ",
"         ...    ",
"        .+@##   ",
"   ...  .@###   ",
"  .$$%..@@##.   ",
"  .$$&&+@@.*#.  ",
"  .$%&&@++@@@#. ",
" .%.&..@@@+###. ",
" .$%%&%%.@@###. ",
" .%%%&&&.@.#..  ",
" .%%%&&&.@###.  ",
"  .%%.&...##..  ",
"  .%%&&.  ..    ",
"  ..%&.         ",
"    ..          ",
"                "};
