/* XPM */
static char * sv_enum_xpm[] = {
"16 16 29 1",
" 	c None",
".	c #004800",
"+	c #004900",
"@	c #004C00",
"#	c #6BB9F4",
"$	c #F4FFF4",
"%	c #F8FFF8",
"&	c #F5FFF5",
"*	c #6BB8F4",
"=	c #80C2F5",
"-	c #95CDF7",
";	c #AAD7F8",
">	c #BFE0FA",
",	c #D4EAFB",
"'	c #E9F5FD",
")	c #490000",
"!	c #FFCFCF",
"~	c #FFF5F5",
"{	c #480000",
"]	c #5E1F1F",
"^	c #FFF4F4",
"/	c #FFF8F8",
"(	c #470000",
"_	c #753F3F",
":	c #8C5F5F",
"<	c #A37F7F",
"[	c #BA9F9F",
"}	c #D1BFBF",
"|	c #E8DFDF",
"     ..+++.@..  ",
"    .#######$+  ",
"   .#######$#.  ",
"  .%&&$&$%%##+  ",
"  +*=-;>,'&##.  ",
"  .*=-;>,'&##.  ",
"  .*=-;>,'&#+   ",
"  +*=-;>,'&.))  ",
"  +@+.+..+.!~{  ",
"   )]]]]]]]^]{  ",
"  {^~^~~^/~]]{  ",
"  )(]_:<[}|]]{  ",
"  )(]_:<[}|]]{  ",
"  {(]_:<[}|]{   ",
"  {(]_:<[}|)    ",
"  {{{{{){){     "};
