/* XPM */
static char * sv_enumerator_xpm[] = {
"16 16 54 1",
" 	c None",
".	c #000000",
"+	c #004900",
"@	c #004800",
"#	c #004C00",
"$	c #77B9EA",
"%	c #7CBDED",
"&	c #76B9EA",
"*	c #69AFE2",
"=	c #6BB9F4",
"-	c #F4FFF4",
";	c #006F53",
">	c #88C5F3",
",	c #8FCAF7",
"'	c #88C5F4",
")	c #58636A",
"!	c #65ACE1",
"~	c #7CBCED",
"{	c #65ADE1",
"]	c #4C9BD2",
"^	c #F8FFF8",
"/	c #61A9DE",
"(	c #77BAEA",
"_	c #61AADF",
":	c #4998D1",
"<	c #F5FFF5",
"[	c #56A2D9",
"}	c #69B0E3",
"|	c #77B9EB",
"1	c #69AFE3",
"2	c #56A2D8",
"3	c #4092CC",
"4	c #65ADE0",
"5	c #348AC5",
"6	c #4999D1",
"7	c #4D9BD2",
"8	c #3389C5",
"9	c #E9F5FD",
"0	c #490000",
"a	c #3188C4",
"b	c #FFCFCF",
"c	c #FFF5F5",
"d	c #480000",
"e	c #1C1A1B",
"f	c #5E1F1F",
"g	c #FFF4F4",
"h	c #FFF8F8",
"i	c #470000",
"j	c #753F3F",
"k	c #8C5F5F",
"l	c #A37F7F",
"m	c #BA9F9F",
"n	c #D1BFBF",
"o	c #E8DFDF",
"   ....+++@#@@  ",
" ..$%&*..===-+  ",
" .;>,'$;.)=-=@  ",
".!%;;;~{].^==+  ",
"./(>;;$_:.<==@  ",
".[}|;|123.<==@  ",
".;;/4;;;5.<=+   ",
" .3676;8.9<@00  ",
" ..a5a;..+@bcd  ",
"  e....ffffgfd  ",
"  dgcgccghcffd  ",
"  0ifjklmnoffd  ",
"  0ifjklmnoffd  ",
"  difjklmnofd   ",
"  difjklmno0    ",
"  ddddd0d0d     "};
