/* XPM */
static char * sv_private_var_xpm[] = {
"16 16 30 1",
" 	c None",
".	c #36454D",
"+	c #848C91",
"@	c #000000",
"#	c #490000",
"$	c #480000",
"%	c #4C0000",
"&	c #FFCFCF",
"*	c #FFCECE",
"=	c #FFCBCB",
"-	c #1C1A1B",
";	c #FFF4F4",
">	c #FFF5F5",
",	c #ED2626",
"'	c #FF9797",
")	c #FF9A9A",
"!	c #FFA1A1",
"~	c #FFAEAE",
"{	c #FFCACA",
"]	c #FF8B8B",
"^	c #FF8888",
"/	c #FFA7A7",
"(	c #FFC5C5",
"_	c #FF8080",
":	c #FF9595",
"<	c #FFA6A6",
"[	c #FFC3C3",
"}	c #EC2424",
"|	c #FF8585",
"1	c #FF8E8E",
"                ",
"  ... +++       ",
"  ... +++       ",
"  ... +++  @@   ",
"          @  @  ",
"          @@@@  ",
"     #$%$ @++@  ",
"    $&*&= @--@  ",
"   $&*&&&       ",
"  $;>>>>>;>,,#  ",
"  #'')!~{&>,,$  ",
"  #]^]'/(*>,,$  ",
"  #^_^:<[&;}#   ",
"  $]|1)/(&>#    ",
"  #$%$$$##%     ",
"                "};
