/* XPM */
static char * sv_protected_var_xpm[] = {
"16 16 27 1",
" 	c None",
".	c #36454D",
"+	c #848C91",
"@	c #C3C7C9",
"#	c #1C1A1B",
"$	c #E2E3E5",
"%	c #490000",
"&	c #480000",
"*	c #FFFFFF",
"=	c #FFCFCF",
"-	c #FFCECE",
";	c #FFF4F4",
">	c #FFF5F5",
",	c #FF9797",
"'	c #FF9A9A",
")	c #FFA1A1",
"!	c #FF8B8B",
"~	c #FF8888",
"{	c #FFA7A7",
"]	c #FF8080",
"^	c #FF9595",
"/	c #FFA6A6",
"(	c #FFC3C3",
"_	c #FF8585",
":	c #FF8E8E",
"<	c #FFC5C5",
"[	c #4C0000",
"                ",
"  ... +++ @#@   ",
"  ... ++###@### ",
"  ... ++#$@@@+# ",
"        #$@@@+# ",
"        #$@@@+# ",
"     %&*#$@@@+# ",
"    &=-*#$@@@+# ",
"   &=-=*#$@@@+# ",
"  &;>>>*#$@@@+# ",
"  %,,')**#@@@#  ",
"  %!~!,{**#@#&  ",
"  %~]~^/(**#%   ",
"  &!_:'{<=**    ",
"  %&[&&&%%[     ",
"                "};
