/* XPM */
static char * sv_public_fun_xpm[] = {
"16 16 46 1",
" 	c None",
".	c #000000",
"+	c #77B9EA",
"@	c #7CBDED",
"#	c #76B9EA",
"$	c #69AFE2",
"%	c #006F53",
"&	c #88C5F3",
"*	c #8FCAF7",
"=	c #88C5F4",
"-	c #58636A",
";	c #65ACE1",
">	c #7CBCED",
",	c #65ADE1",
"'	c #4C9BD2",
")	c #61A9DE",
"!	c #77BAEA",
"~	c #61AADF",
"{	c #4998D1",
"]	c #1C1A1B",
"^	c #56A2D9",
"/	c #69B0E3",
"(	c #77B9EB",
"_	c #69AFE3",
":	c #56A2D8",
"<	c #4092CC",
"[	c #FFE894",
"}	c #FDFBF1",
"|	c #65ADE0",
"1	c #348AC5",
"2	c #AA861A",
"3	c #4999D1",
"4	c #4D9BD2",
"5	c #3389C5",
"6	c #3188C4",
"7	c #FBD260",
"8	c #FEE388",
"9	c #F6BD33",
"0	c #F5B725",
"a	c #F8C546",
"b	c #FACF5C",
"c	c #FEE286",
"d	c #F7C03A",
"e	c #F6BD32",
"f	c #F9C84B",
"g	c #FBD161",
"   ....         ",
" ..+@#$..       ",
" .%&*=+%.----   ",
".;@%%%>,'.      ",
".)!&%%+~{.]]]]  ",
".^/(%(_:<.[[}]  ",
".%%)|%%%1.[}2]  ",
" .<343%5.}}22]  ",
" ..616%..[}22]  ",
"  ]....78[}22]  ",
"  ]909abc[}2]   ",
"  ]dedfg8[}]    ",
"  ]]]]]]]]]  -  ",
"            -   ",
"   ---------    ",
"                "};
