/* XPM */
static char * sv_protected_fun_xpm[] = {
"16 16 15 1",
" 	c None",
".	c #1C1A1B",
"+	c #C3C7C9",
"@	c #58636A",
"#	c #E2E3E5",
"$	c #848C91",
"%	c #FFE894",
"&	c #FDFBF1",
"*	c #AA861A",
"=	c #FEE58C",
"-	c #FEE388",
";	c #FACF5C",
">	c #FEE286",
",	c #F9C84B",
"'	c #FBD161",
"                ",
"    .           ",
" ...+...@@@@@   ",
" .#+++$.        ",
" .#+++$.......  ",
" .#+++$.%%%%&.  ",
" .#+++$.%%%&*.  ",
" .#+++$.&&&**.  ",
" .#+++$.=%&**.  ",
" .#+++$.-%&**.  ",
"  .+++.;>%&*.   ",
"  ..+.,'-%&.    ",
"  .........  @  ",
"            @   ",
"   @@@@@@@@@    ",
"                "};
