/* XPM */
static char * sv_public_var_xpm[] = {
"16 16 56 1",
" 	c None",
".	c #000000",
"+	c #36454D",
"@	c #848C91",
"#	c #77B9EA",
"$	c #7CBDED",
"%	c #76B9EA",
"&	c #69AFE2",
"*	c #006F53",
"=	c #88C5F3",
"-	c #8FCAF7",
";	c #88C5F4",
">	c #65ACE1",
",	c #7CBCED",
"'	c #65ADE1",
")	c #4C9BD2",
"!	c #61A9DE",
"~	c #77BAEA",
"{	c #61AADF",
"]	c #4998D1",
"^	c #56A2D9",
"/	c #69B0E3",
"(	c #77B9EB",
"_	c #69AFE3",
":	c #56A2D8",
"<	c #4092CC",
"[	c #490000",
"}	c #65ADE0",
"|	c #348AC5",
"1	c #480000",
"2	c #FFCFCF",
"3	c #FFCECE",
"4	c #4999D1",
"5	c #4D9BD2",
"6	c #3389C5",
"7	c #3188C4",
"8	c #FFF4F4",
"9	c #FFF5F5",
"0	c #FF9797",
"a	c #FF9A9A",
"b	c #FFA1A1",
"c	c #FFAEAE",
"d	c #FFCACA",
"e	c #ED2626",
"f	c #FF8B8B",
"g	c #FF8888",
"h	c #FFA7A7",
"i	c #FFC5C5",
"j	c #FF8080",
"k	c #FF9595",
"l	c #FFA6A6",
"m	c #FFC3C3",
"n	c #EC2424",
"o	c #FF8585",
"p	c #FF8E8E",
"q	c #4C0000",
"         ....   ",
"  +++ @..#$%&.. ",
"  +++ @.*=-;#*. ",
"  +++ .>$***,').",
"      .!~=**#{].",
"      .^/(*(_:<.",
"     [.**!}***|.",
"    123.<454*6. ",
"   1232..7|7*.. ",
"  1899999....[  ",
"  [00abcd29ee1  ",
"  [fgf0hi39ee1  ",
"  [gjgklm28n[   ",
"  1fopahi29[    ",
"  [1q111[[q     ",
"                "};
