/* XPM */
static char * sv_struct_xpm[] = {
"16 16 50 1",
" 	c None",
".	c #004800",
"+	c #004900",
"@	c #004C00",
"#	c #CEFFCE",
"$	c #CFFFCF",
"%	c #F4FFF4",
"&	c #26ED26",
"*	c #F8FFF8",
"=	c #F5FFF5",
"-	c #24EC24",
";	c #97FF97",
">	c #95FF95",
",	c #A1FFA1",
"'	c #AEFFAE",
")	c #C7FFC7",
"!	c #8BFF8B",
"~	c #8AFF8A",
"{	c #8EFF8E",
"]	c #A7FFA7",
"^	c #C5FFC5",
"/	c #27EE27",
"(	c #88FF88",
"_	c #7EFF7E",
":	c #A4FFA4",
"<	c #9AFF9A",
"[	c #490000",
"}	c #FFCFCF",
"|	c #FFF5F5",
"1	c #480000",
"2	c #FFCECE",
"3	c #FFF4F4",
"4	c #ED2626",
"5	c #FFF8F8",
"6	c #EC2424",
"7	c #FF9797",
"8	c #FF9595",
"9	c #FFA0A0",
"0	c #FFAEAE",
"a	c #FFCACA",
"b	c #FF8F8F",
"c	c #FF8888",
"d	c #FF8B8B",
"e	c #FFA7A7",
"f	c #FFC3C3",
"g	c #FF8080",
"h	c #FFA6A6",
"i	c #FF8E8E",
"j	c #FF8A8A",
"k	c #FFC5C5",
"     ..+++.@..  ",
"    .#$$#$$#%+  ",
"   .$#$#$$#%&.  ",
"  .*==%=%**-&+  ",
"  +;>;,')#=&-.  ",
"  .!~{;]^#=/-.  ",
"  .(_(>:^#=/+   ",
"  +!({<]^$=.[[  ",
"  +@+.+..+.}|1  ",
"   [}22}}22341  ",
"  13|3||35|661  ",
"  [78790a2|661  ",
"  [bcd7ef25641  ",
"  1cgc8hf}|61   ",
"  1iji7ek}|[    ",
"  11111[1[1     "};
