/* XPM */
static char * sv_unknown_xpm[] = {
"16 16 95 2",
"  	c None",
". 	c #7F786E",
"+ 	c #6E6659",
"@ 	c #7B7062",
"# 	c #908576",
"$ 	c #A69C8D",
"% 	c #66625C",
"& 	c #716D66",
"* 	c #7D786E",
"= 	c #ADA393",
"- 	c #878074",
"; 	c #5D564D",
"> 	c #6F6659",
", 	c #A29587",
"' 	c #A3988C",
") 	c #A69D8F",
"! 	c #B1A898",
"~ 	c #8B8579",
"{ 	c #726E65",
"] 	c #7C776C",
"^ 	c #988F80",
"/ 	c #74695C",
"( 	c #695A49",
"_ 	c #473E32",
": 	c #655C51",
"< 	c #B9A58F",
"[ 	c #BCA893",
"} 	c #B1A08D",
"| 	c #9C8F80",
"1 	c #988D7E",
"2 	c #73685A",
"3 	c #615549",
"4 	c #716355",
"5 	c #796C5E",
"6 	c #75695C",
"7 	c #3F372F",
"8 	c #5C564C",
"9 	c #C0AB91",
"0 	c #6D6356",
"a 	c #736857",
"b 	c #7B7162",
"c 	c #BAAA94",
"d 	c #675C4F",
"e 	c #796C5C",
"f 	c #403C36",
"g 	c #3B3833",
"h 	c #5C544D",
"i 	c #3C352E",
"j 	c #565651",
"k 	c #B8A187",
"l 	c #B79F84",
"m 	c #3A3833",
"n 	c #B7A692",
"o 	c #63584A",
"p 	c #62594E",
"q 	c #5A544B",
"r 	c #504B45",
"s 	c #4A453E",
"t 	c #37322D",
"u 	c #A29078",
"v 	c #48443D",
"w 	c #998771",
"x 	c #3C3934",
"y 	c #B6A18A",
"z 	c #61564A",
"A 	c #695F50",
"B 	c #3A3835",
"C 	c #383633",
"D 	c #5C554C",
"E 	c #2E2B27",
"F 	c #000000",
"G 	c #766959",
"H 	c #A8947A",
"I 	c #736758",
"J 	c #9F8D74",
"K 	c #B7A388",
"L 	c #5E564B",
"M 	c #796F63",
"N 	c #575148",
"O 	c #5C564D",
"P 	c #3E3A34",
"Q 	c #0F0D0C",
"R 	c #403A31",
"S 	c #7C6E5B",
"T 	c #B6A185",
"U 	c #B8A38A",
"V 	c #595148",
"W 	c #6D665C",
"X 	c #443E38",
"Y 	c #100F0D",
"Z 	c #2F2923",
"` 	c #7F6E5D",
" .	c #433C34",
"..	c #2C2925",
"+.	c #020201",
"                                ",
"                                ",
"                                ",
"                                ",
"                .               ",
"      + @ # $ % & * = - ;       ",
"    > , ' ) ! ~ { ] ^ / ( _     ",
"    : < [ } | 1 2 3 4 5 6 7     ",
"    8 9 0 a b c d e f g h i     ",
"    j k g l m n o p q r s t     ",
"      u v w x y z A B C D E F   ",
"      G H I J K L M N O P Q F   ",
"        R S T U V W X Y F       ",
"            Z `  ...+.          ",
"                                ",
"                                "};
