/* XPM */
static char * unknown_xpm[] = {
"16 16 11 1",
" 	c None",
".	c #000000",
"+	c #0000FF",
"@	c #938A71",
"#	c #5452E4",
"$	c #8F866D",
"%	c #6763D0",
"&	c #807CC4",
"*	c #4A48D9",
"=	c #36322A",
"-	c #24221B",
"                ",
"   ..........   ",
"   .+++++@+..   ",
"   .++++#$+..   ",
"   .+++++++..   ",
"   .+++++%+..   ",
"   .++++&++..   ",
"   ..........   ",
"   .+++*+.+..   ",
"   ..........   ",
"   ..........   ",
"   ........=.   ",
"   ..........   ",
"   .......-..   ",
"   ..........   ",
"                "};
